<?xml version="1.0" encoding="utf-8"?>
<!-- Generator: Adobe Illustrator 22.1.0, SVG Export Plug-In . SVG Version: 6.00 Build 0)  -->
<svg version="1.1" id="Layer_1" xmlns="http://www.w3.org/2000/svg" xmlns:xlink="http://www.w3.org/1999/xlink" x="0px" y="0px"
	 viewBox="0 0 72 72" style="enable-background:new 0 0 72 72;" xml:space="preserve">
<style type="text/css">
	.st0{fill:#FFFFFF;}
</style>
<path class="st0" d="M42.9,38.3V38c2.9-0.6,4.3-2.2,4.3-4.8V21.6c0-5.4-2.7-8.2-8-8.2H23.3c-0.2-0.6-0.7-1-1.4-1
	c-0.8,0-1.4,0.6-1.4,1.4s0.6,1.4,1.4,1.4c0.7,0,1.2-0.4,1.4-1h5.7v22.1h-5.7c-0.2-0.6-0.7-1-1.4-1c-0.8,0-1.4,0.6-1.4,1.4
	s0.6,1.4,1.4,1.4c0.7,0,1.2-0.4,1.4-1h5.7v20.7h-5.6c-0.2-0.6-0.7-1-1.4-1c-0.8,0-1.4,0.6-1.4,1.4c0,0.8,0.6,1.4,1.4,1.4
	c0.7,0,1.2-0.4,1.4-1h5.7v0H41c4.6,0,6.8-2.2,6.8-6.7v-8.4C47.9,40.9,46.2,39.2,42.9,38.3z M34.9,18.9h3.6c1.8,0,2.7,1.1,2.7,3.3
	v9.9c0,2.2-1.2,3.3-3.4,3.3h-2.8V18.9z M41.8,51.1c0,1.3-0.8,1.9-2.4,1.9h-4.5V40.8h3.3c2.4,0,3.6,1.1,3.6,3.2V51.1z"/>
</svg>
